<svg id="Layer_1" data-name="Layer 1" xmlns="http://www.w3.org/2000/svg" viewBox="0 0 998.8 1046.02"><path d="M999.93,510.5a48.13,48.13,0,0,1-5.53,2.19c-3.3.87-5.4-.23-5.61-4a4.52,4.52,0,0,0-1.14-2.06c-2.84-3.78-6.15-7.29-8.43-11.39-1.53-2.73-2.82-4.17-6-3.61-1,.17-2.81-.3-3-.84-.3-1.05-.11-2.91.62-3.46,4.33-3.3,8.59-6.88,13.41-9.26,4.41-2.18,5.3-.67,6.36,4.19a162,162,0,0,0,5.8,18.93c.44,1.26,2.3,2,3.5,3Z" transform="translate(-1.13 -2.23)"/><path d="M125.7,126c7.73,1.89,15.81,4.24,24,5.76,10.86,2,15.42,11,21.48,18.34,4.14,5,6.51,5.06,10.88.44,3.94-4.17,8.73-7.52,12.92-11.48,3.18-3,5.84-6.59,9.06-9.57,1.79-1.64,4.26-2.55,6.4-3.83,1.73-1,3.45-2.09,5.13-3.22,7-4.74,14-9.64,21.09-14.24A176,176,0,0,1,254,98a204.2,204.2,0,0,1,20.3-8.37c4.11-1.5,8.5-2.18,12.71-3.4,5.1-1.48,10.07-3.47,15.23-4.67,5.4-1.24,9.88-4.28,16.25-4.12,10.63.27,21.29-3.12,32-4,8.73-.69,17.56.08,26.35.22,7.08.11,14.16.14,21.24.4,2,.08,4,.95,6.07,1.23,9.47,1.31,19.06,2,28.39,4,6.53,1.36,12.65,4.59,19.07,6.58a93.12,93.12,0,0,0,12.86,2.65c.57.09,2-1.4,2-2.1-.32-5.25-1.84-10.6-1.16-15.68A16.62,16.62,0,0,0,461.52,57c-1-1.26.16-5.1,1.45-7,.85-1.24,3.84-1.81,5.64-1.46,3.71.72,6-.47,7.84-3.53,3.27-5.46,9-9.45,9.66-16.48,0-.46.95-1.09,1.55-1.21,5-1,8.61-4.09,11.85-7.66C506.9,11.51,516.42,8.17,527,6.7c5.81-.82,11.47-2.7,17.28-3.41,19.88-2.43,39.32-.91,58.07,6.85,9.17,3.79,18.62,6.92,27.76,10.77,2.49,1.05,4.35,3.6,6.49,5.47,2.9,2.54,5.85,5,8.7,7.64,3.05,2.8,6.35,5.42,8.92,8.62a156.4,156.4,0,0,1,10.48,14.9c3.86,6.13,7.81,12.28,10.83,18.84s4.87,13.89,7.56,20.74c1.85,4.7,4.6,9,6.32,13.78a115.9,115.9,0,0,1,4.22,15.36c.93,4.35,1.08,8.86,1.95,13.23a56.74,56.74,0,0,0,2.81,8.84c2.13,5.65,2,11.45,1.7,17.34-.27,5.09.69,10.39-.4,15.27a130.29,130.29,0,0,1-7.25,22.61c-2.56,6.06-6.75,11.41-9.66,17.34-1,2.11-.31,5-.6,7.56-.24,2.14-.22,4.69-1.4,6.2-.64.81-3.76.2-5.46-.49-2.74-1.12-4.28-.87-6.53,1.51s-5.79,3.9-9,5c-4.21,1.47-5.53,3.91-3,7.52,1.58,2.26,3.5,4.29,5.21,6.46.64.8,1.71,1.8,1.6,2.56-.77,5.17,3.55,7.29,5.92,10.63a68.68,68.68,0,0,1,6,10c2.43,5.07,4.16,10.48,6.67,15.51s5.86,9.32,8.19,14.27a129.49,129.49,0,0,1,5.87,15.72c2,6.12,3.71,12.33,5.35,18.55a78,78,0,0,1,2.62,12.57c.81,8.75,1.06,17.55,1.73,26.32a4.34,4.34,0,0,0,2,3.19c5.93,2.13,7.41,7.33,9.38,12.42,3.11,8,2.82,16.92,7.56,24.68,3,5,3.54,11.45,5.34,17.21,2.78,8.91,5.76,17.77,8.53,26.69.64,2.07.59,4.36,1.21,6.44.72,2.38,1.84,4.64,2.79,6.95a7.35,7.35,0,0,1,.79,1.93c.43,5.62.76,11.25,1.19,16.87a9.29,9.29,0,0,0,.83,4c4.43,7.1,3.53,15.2,4.41,22.93.38,3.29-1.38,6.84,1.88,9.72.57.51-.39,2.57-.36,3.91.27,11.21.45,22.42,1,33.61.33,7.47,1,14.93,1.82,22.35.61,5.26,2.11,10.43,2.64,15.69.67,6.64.74,13.33,1.11,20q.71,12.66,1.5,25.34c.06,1,.42,2,.58,3.06q2.26,14.1,4.51,28.21a7.2,7.2,0,0,1,.12,1.73c-.66,6.74-2,13.49-1.88,20.21.19,11.4,1.2,22.78,2,34.16.79,10.82,1.8,21.62,2.66,32.43.49,6.15.8,12.32,1.33,18.47a40.72,40.72,0,0,0,1.22,6.26c.1.42.81.69,1.24,1,.23-.49.68-1,.67-1.45-.08-4.51,1.41-7.9,4.89-11.22,2.14-2.05,2.33-6.36,2.93-9.73.48-2.65-.28-5.6.51-8.09.59-1.84,2.74-3.23,4.31-4.69a27.07,27.07,0,0,1,3.13-2.26c-1.08-1.06-2-2.56-3.28-3.08-3.37-1.35-7.14-1.85-10.3-3.53-2-1.07-4.77-4.16-4.36-5.45a11.14,11.14,0,0,1,5.62-6,12.92,12.92,0,0,1,8.43-.57c12.75,3.93,22.09,11.27,28.23,24,3.41,7,2.61,13.63,3.67,20.42,1.15,7.37-.83,14.18-3.65,20.86-.39.92-.79,2.38-.35,3,4.2,6-2.43,8.84-3.75,13.19-.53,1.71-2.09,3.46-1.86,5,.54,3.44-1.45,5.06-3.87,5.67s-5.59.85-7.44-.32c-5.86-3.73-11.25-2.64-14.17,4.06-1.94,4.46-4.09,7.81-9.76,6.59-.41-.08-1.63,1.69-1.77,2.7-.4,2.93-.46,5.91-.61,8.87-.05.9-.29,2,.12,2.69,3.45,5.57,1.66,11.28,1,17.14-1.64,14.73-3.18,29.53-.73,44.33,1.79,10.81,3.5,21.66,6,32.33,1.6,6.94.89,13.56-.69,20.19-.43,1.82-2.16,3.42-3.51,4.92-1.66,1.85-3.57,2.4-5.75.5-.62-.54-1.83-.33-2.59-.77a41,41,0,0,1-5-3.37c-2.59-2.09-4.79-4.82-7.65-6.39a20,20,0,0,1-9-9.59,133.75,133.75,0,0,0-7.8-13.85c-1.33-2.13-3.26-3.25-5-.11-2.22,4.07-5.88,1.55-8.76,1.51-1.33,0-3.37-2.51-3.8-4.21-1.87-7.4-2.06-15.47-5.15-22.26-3.7-8.11-6.6-17.45-15.72-22a4.73,4.73,0,0,1-1.63-1.27c-4.31-5.45-6.13-5.82-13-3-3.54,1.44-7.32,2.29-10.8,3.84-4.61,2-9,4.57-13.53,6.79a11.09,11.09,0,0,1-4,1.16c-11.71.81-22.1,5.65-32.65,10.2-5.39,2.33-11.28,3.45-16.83,5.44-4.58,1.64-8.92,3.94-13.49,5.61-5.62,2.05-11.34,3.86-17.08,5.59a136.41,136.41,0,0,1-13.6,3.52c-2.91.55-6.16-.32-9,.5-12.14,3.58-24.17,7.55-36.24,11.35-3.88,1.22-7.78,2.36-11.66,3.55-.44.13-1,.18-1.28.49-4.8,6.18-13.05,4.73-18.88,8.59-2.18,1.44-4.1,3.28-6.35,4.6-4.48,2.64-9,5.16-13.68,7.51-3.7,1.87-4.16,5.14-3.91,8.56.58,8.08,1.22,16.17,2.23,24.21.48,3.79,0,5.63-4.36,4.8-3.49-.67-5.24.41-5.14,4.57.2,7.66-1.19,15.47-.09,23,.71,4.85.22,7.44-4.09,9.18a3.52,3.52,0,0,1-2.16-.14,56.3,56.3,0,0,1-7.82-2.68c-1.1-.53-2.41-2.15-2.38-3.24.22-8.15-3.8-15-6.46-22.27-3.63-9.91-7.93-19.62-10.8-29.75-4.85-17.06-8.69-34.41-13.15-51.58-3.55-13.68-7.75-27.19-11-40.93-3.66-15.31-6.49-30.81-9.9-46.18-1.76-7.92-4.06-15.71-6-23.58-1.71-7-3.21-14-4.93-20.94-1-4.22-2.46-8.35-3.49-12.57-2.06-8.43-3.81-16.94-6-25.34-1-4-2.79-7.8-4.23-11.68-2.12-5.73-4.16-11.5-6.43-17.17-.43-1.08-1.77-2.54-2.64-2.51-1.19,0-2.47,1.21-3.46,2.15-1.16,1.09-1.83,3.23-3.09,3.59-8.41,2.4-11.53,9.55-15.38,16.19-4.17,7.19-8.72,14.17-12.86,21.37-1.16,2-1.45,4.54-2.16,6.82-.19.63-.29,1.46-.74,1.82-2.26,1.8-4.53,3-7.62,1.34-2.88-1.52-5.7-2.44-4.8-6.8.25-1.24-1.41-3.53-2.77-4.3-3.3-1.85-5.09-4.38-4.07-8,2.8-9.84,6-19.58,8.88-29.41.83-2.85.83-5.93,1.63-8.79,1.7-6.09,3.69-12.09,5.51-18.14.33-1.09.3-2.31.68-3.37,1-2.89,1.61-6.21,3.45-8.48,4.8-5.9,10.23-11.28,15.25-17a4.38,4.38,0,0,0,.63-3.63c-2.43-6.88-4.54-14-7.82-20.41a60.28,60.28,0,0,1-5.93-17.89c-.55-3.36-3.23-6.53-5.41-9.44-2.81-3.75-5.28-7.26-3.7-12.38.77-2.52-4.14-6.65-7.05-6.94a44.07,44.07,0,0,1-8.6-2c-4.35-1.38-8.54-3.29-12.94-4.46-6.06-1.61-12.38-2.34-18.36-4.17-6.72-2.06-13.23-4.84-19.77-7.48q-8.15-3.3-16.11-7c-4.48-2.1-8.61-5.25-13.28-6.57-5.24-1.49-7.41-5.07-9.78-9.21-1.09-1.91-3.41-3.08-5.05-4.72-6.19-6.2-12.44-12.35-18.46-18.71-6.68-7.05-13.65-13.9-19.58-21.56-7.54-9.74-16.07-18.88-20.79-30.65-1.84-4.61-5.09-8.63-7.28-13.12A101.32,101.32,0,0,1,123,475q-2.76-7.89-5.34-15.85c-1.18-3.65-2.3-7.33-3.25-11-1.27-4.95-2.35-9.95-3.52-14.93a13.61,13.61,0,0,1-.42-1.33c-.75-5.13-1-8.94-8.94-7.7-5.45.85-12.34-1.49-16.82-7.13-2.58-3.24-6.9-5.06-9.69-8.19-7.28-8.15-14.08-16.74-21.28-25A6.22,6.22,0,0,0,49,382.27c-9.9,1.36-14.79-2.32-17.68-12.07-2.56-8.68-6.39-17-9.36-25.55-2-5.79-3.48-11.76-5.18-17.66a18.25,18.25,0,0,0-.5-2.38c-2.69-6.22-5.55-12.36-8.08-18.64a17.82,17.82,0,0,1-1.23-6.74c0-6.68-1.53-12.71-5.64-18.09-.49-.63.18-2.27.52-3.39.69-2.34,2.13-4.63,2.19-7,.26-10.15-.28-20.32.29-30.44a87.18,87.18,0,0,1,3.44-20.17c1.95-6.48,6-12.33,8-18.81a58.75,58.75,0,0,1,8.67-17.58c1.34-1.87.76-5.07,2-7.08,4.73-7.64,10.11-14.71,17.85-19.77,4.94-3.22,9.12-7.62,14.1-10.75,4.5-2.82,9.62-4.66,14.49-6.89.73-.34,1.7-.26,2.32-.72,7.28-5.36,16-6.33,24.48-8S116.44,127.61,125.7,126ZM48.93,264.69c.61-.57,1.85-1.4,1.74-1.67A17.85,17.85,0,0,0,48.62,260c0,.9,0,1.81,0,2.71a18.05,18.05,0,0,0,.34,2.06v3.47a12.4,12.4,0,0,0-.46,1.75c2.17.84,1.77,1.57.09,2.6a2.19,2.19,0,0,0-.42,1.92c1.59,5.71,3.14,11.43,5.05,17,.41,1.22,2.18,2,3.32,2.95.25-1.69,1-3.47.67-5.05-1.26-6.67-2.78-13.28-4.31-19.88a12.78,12.78,0,0,0-1.56-2.9l-2.44,1.63Zm-5.59-23L42.6,240l-.25.18c.34.51.68,1,1,1.51L46,247.82l1-.47Q45.15,244.53,43.34,241.71ZM550.28,125a7.4,7.4,0,0,0,.69,1.57c.69,1,1.49,1.87,2.25,2.8.14-.25.48-.62.41-.73a29.34,29.34,0,0,0-2.13-3.14c-.23-.3-.83-.31-1.27-.45a22.14,22.14,0,0,0-1.78-4c-.4-.59-1.54-.67-2.35-1l-.69,2.14-1.28.77.4.46.84-1.27ZM25.23,204l1.66,3.2,1.79-3.91c5-2.35-2.64-2.95-.67-4.88l-2,.16C26.52,200.45,21.88,201.64,25.23,204Zm93.35,219.52-.24,0a12.61,12.61,0,0,0,.18,2.76c2.42,8.52,4.66,17.11,7.46,25.51,2.58,7.76,5.83,15.29,8.69,23,.93,2.48,1.37,5.17,2.4,7.6,5.92,14,14.47,26.2,24.39,37.56,4.93,5.64,9.71,11.42,14.83,16.88,9.51,10.14,19.13,20.2,28.92,30.08,2.63,2.66,6,4.69,9.13,6.77a93.87,93.87,0,0,0,8.47,4.78c1,.52,2.3.43,3.29,1,3.84,2,7.47,4.48,11.45,6.15,5.48,2.31,11.21,4,16.83,6,3.63,1.27,7.26,2.56,10.91,3.8,2.17.74,4.37,1.43,6.56,2.1,1.94.6,3.91,1.11,5.85,1.71,2.72.84,5.4,1.79,8.12,2.59a84.86,84.86,0,0,0,9.35,2.51,69.34,69.34,0,0,0,9.24.73c4.68.19,9.37.4,14,.33,3.05,0,6.08-.75,9.13-.83,1.79,0,3.59.78,5.41.88,12.68.75,24.9-1.86,37-5.23,4.18-1.16,8.3-2.86,12.56-3.38,7.7-.94,15.48-1.36,23.24-1.65,15.22-.56,30.16-2.65,44.46-8,3.34-1.25,6-3.2,9.76-1,1.13.67,3.33-.46,5-.77,8.36-1.51,16.72-3,25.07-4.53,4.76-.88,9.47-2,14.25-2.7,6.36-.88,12.83-1,19.14-2.16a202.45,202.45,0,0,0,20.1-4.94c8.53-2.47,16.91-5.47,25.45-7.91,13.09-3.75,26.47-6.63,39.34-11,9.8-3.34,17.32-10.8,23.81-18.63,7.23-8.73,13.38-18.35,20.06-27.53,1.14-1.57,2.75-2.8,3.87-4.37,4.84-6.85,9.57-13.76,12.34-21.82,2.24-6.49,4.81-12.86,7.14-19.32,2.4-6.64,4.54-13.37,7.07-20,3.11-8.1,7.83-15.67,7.5-24.82a17.3,17.3,0,0,1,.35-5.19c1.86-6.81,3-13.42,2.13-20.75-.89-7.63.67-15.55,1-23.35a24.82,24.82,0,0,0-.47-6.5c-1-4.36-2.28-8.65-3.45-13-.54-2-1-4-1.63-6-1.5-4.88-3-9.77-4.61-14.62s-2.92-10-5.15-14.64c-4.27-8.9-9.06-17.56-13.73-26.27-6.16-11.51-12.06-23.16-18.74-34.36-3.76-6.31-8.91-11.78-13.33-17.7-4.62-6.18-9.08-12.47-13.69-18.65-4.47-6-8.38-12.63-13.77-17.65-4.49-4.16-9.17-7.77-13-12.85-4.64-6.19-10.78-11.31-16.61-16.54-8.74-7.84-17.61-15.56-26.74-23-5-4.06-10.63-7.43-16.09-10.93-6.78-4.34-13.83-8.29-20.48-12.81-4.75-3.22-7.35-2.49-8.4,3.14-.28,1.49-.5,3-.86,4.45-1.2,4.92-6.55,8.22-9.85,5.89a23.85,23.85,0,0,1-10.15-17c-.8-5.84-3.48-11.09-10-12.87-3.75-1-7.47-2.19-11.17-3.4-6-2-11.93-4.12-17.94-6-6.29-2-12.51-4.55-19-5.6-7.23-1.17-14.7-.82-22.06-1.31-12.9-.87-25.77-2.31-38.67-2.67-9.46-.27-19,.65-28.44,1.35-4.66.35-9.28,1.4-13.9,2.2-.65.11-1.2.75-1.85.88q-6.92,1.31-13.87,2.49c-1.34.22-2.95-.13-4,.5-1.56.93-2.56,2.89-4.17,3.66-1,.48-2.81-1-4-.63-6,1.68-12.05,3.49-17.94,5.62-2.67,1-5,2.91-7.54,4.2-5.33,2.68-10.86,5-16.08,7.89-3.63,2-6.67,5.1-10.33,7a173.59,173.59,0,0,0-25.5,16.33c-1.2.94-2.17,2.19-3.37,3.14-4.31,3.45-8.78,6.7-13,10.27-8,6.8-15.83,13.77-23.75,20.64-1.47,1.27-3.28,2.19-4.55,3.61-2.51,2.8-4.78,5.81-7.09,8.78-4.3,5.53-10.09,9.68-12.88,16.66-2.31,5.79-6.77,10.69-9.72,16.28-1.79,3.39-2.42,7.37-3.74,11-1.6,4.43-3.42,8.78-5,13.2-1.45,3.94-1.77,8.88-4.4,11.67-3.58,3.79-2.82,7.78-3.26,11.89a7.84,7.84,0,0,1-.23,1.37c-2.73,9.35-5.51,18.68-8.18,28.05a67.88,67.88,0,0,0-2.42,10.45c-1,8.4-1.45,16.85-2.32,25.26-.5,4.83-2,9.63-2,14.43.06,12,.74,24,1.15,36,.17,4.81-.13,9.67.53,14.4.84,5.91,2.45,11.71,3.73,17.56Zm610.13,61.25.59-.11a39,39,0,0,0-1-6.51c-2.93-9-6.18-17.95-9.07-27-2-6.37-3.4-13-5.6-19.29-2.06-5.92-4.78-11.61-7.32-17.36-.24-.55-1.55-1.2-1.89-1a4.22,4.22,0,0,0-1.92,2.22c-1,3.77-1.43,7.68-2.55,11.39-1.58,5.18-3.57,10.24-5.4,15.34-1.66,4.63-3.5,9.21-5,13.9-1.24,3.9-1.7,8.07-3.17,11.86-2.8,7.17-5.84,14.28-9.25,21.18a156.14,156.14,0,0,1-9.4,16.05c-2.71,4.15-6,8-9,11.89-6.6,8.56-12.8,17.5-20,25.54A93.53,93.53,0,0,1,621.6,557.3c-4.42,3-9.79,4.72-14.88,6.63-5.91,2.21-11.92,4.21-18,5.92-7.33,2.07-14.82,3.59-22.17,5.62s-14.41,4.4-21.64,6.51c-1.51.44-3.23.18-4.75.61-4,1.13-7.93,2.78-12,3.62q-11.77,2.44-23.69,4.16c-6.84,1-13.79,1.25-20.62,2.33-8,1.26-15.81,3.48-23.81,4.49-8.16,1-16.25,1.85-23.62,6-2.2,1.23-4.65,2.59-7.05,2.74-8.45.53-16.94.37-25.4.81q-11.9.62-23.75,2c-3.79.45-7.45,1.84-11.2,2.69-5.13,1.17-10.29,2.24-15.44,3.33-3.94.84-7.87,2.23-11.84,2.36-7.86.27-15.74-.25-23.61-.22-1.85,0-4.93.52-5.25,1.51-.52,1.62.47,4,1.3,5.77,1.87,4,4.16,7.89,6,11.93,2.05,4.41,4,8.9,5.68,13.45,1.56,4.19,2.48,8.62,4.17,12.74,2.23,5.42,4.92,10.66,7.44,16,1.48,3.1,3.4,6,4.44,9.28,1.91,5.92,3.1,12.07,5,18,1.41,4.39,2.46,8.88,8.49,10.23,4.14.93,4.54,5.62,2.32,9.49a7.27,7.27,0,0,0-.44,5.4c1.57,4.47,3.86,8.69,5.54,13.13,2.13,5.65,4.1,11.38,5.86,17.17,1.93,6.37,3.58,12.83,5.3,19.27,2.53,9.46,5.15,18.89,7.47,28.4,2.61,10.68,4.8,21.46,7.43,32.13,1.54,6.25,3.9,12.31,5.3,18.58,1.27,5.68,1.64,11.55,2.59,17.31.65,3.93,1.56,7.83,2.48,11.72,1.17,5,2.45,9.88,3.73,14.8,1.17,4.55,2.31,9.11,3.63,13.62,2,6.69,4.07,13.34,6.11,20,.29,1,.49,2,.73,2.93a13.35,13.35,0,0,0,2.66-1.91c4.18-5,8.09-10.25,15.33-11a18.13,18.13,0,0,0,3.61-1.18c1.44-.48,3.78-1.72,4.16-1.28,1.75,2,4.52,4.93,4.07,6.82-1.44,5.95,3.38,8.52,5.59,12.37.66,1.14,3.5,1.5,5.29,1.41,3.38-.17,5.14,1.09,4.37,4.38-.45,1.88-2.22,3.42-2.95,5.3-.42,1.09,0,2.52.11,3.8,3.5-.94,7.51-1.1,10.37-3,5.86-3.91,12.92-4.2,19-8.12,8.75-5.62,20.41-4.65,29.78-10.23,4.21-2.51,9.49-3.28,14.34-4.63,2.5-.7,5.17-.79,7.7-1.42,3.59-.89,7.08-2.24,10.69-3,4.91-1,9.91-1.55,14.83-2.52,2.1-.42,4-1.68,6.14-2.08,8-1.54,16-2.56,22-9a17.11,17.11,0,0,1,6.11-4.43c6.34-2.37,12.81-4.43,19.32-6.28,8.54-2.43,17-4.75,24.61-9.77,3.21-2.12,7.16-3.89,11.93-3.33,5.09.6,10.32-.34,14.59-4.34s6.44-10.29,13.32-11c.24,0,.4-.55.66-.78,4.91-4.61,14.34-2.64,17,3.47a13.12,13.12,0,0,0,2.68,4.38c.84.8,3.13,1.48,3.64,1,3.15-2.94,6.45-5.93,8.79-9.5,2-3,3.76-4.73,7.51-3.72,10.12,2.73,11.23.4,13.46-7.15.47-1.6,2.29-3.93,3.5-3.93,2.23,0,4.47,1.47,6.73,2.26,2.61.91,5.32,2.55,7.85,2.33,1.78-.16,4.61-2.76,4.79-4.49,1.14-11.17,2.34-22.41,2.25-33.61a309.82,309.82,0,0,0-2.68-34.93c-.92-7.49-2.51-14.89-2-22.51a9.62,9.62,0,0,0-.26-2.77c-4.08-17.33-4.42-35-5-52.68-.3-8.82,1.11-17.7.82-26.53-.27-8.11-1.93-16.17-2.72-24.27-.91-9.21-1.51-18.46-2.3-27.68s-1.4-18.28-2.54-27.37c-1.28-10.2-3.62-20.3-4.51-30.53-.93-10.71-.62-21.53-1-32.29-.21-6.49-.29-13-1-19.44s-2.19-12.92-3.41-19.36C731.45,498.32,730.06,491.53,728.71,484.73ZM115.39,161.65l-.94-.79a19.43,19.43,0,0,0-1.8,2.88c-.39.94-.91,2.64-.52,2.95a47.53,47.53,0,0,0,5.64,3.5,9.08,9.08,0,0,0,.89-1.65c.87-2.72,1-6,5.29-5.59.52.06,1.07-.82,1.69-1,1.31-.42,3.09-1.35,4-.84a20.09,20.09,0,0,1,5.29,4.75c2,2.5,4.92,3,6.08.7q4.23-8.36,8.46-16.72c2.06-4.08.6-7.41-4-7.68-6.23-.36-12-2.76-18.19-3.58-6.76-.91-13.61.78-20.17-1.3-.18-.06-.68.32-.74.57-.42,1.85-.31,1.72-1.78.79a4,4,0,0,0-2.84-.48c-5.8,1.5-11.61,3-17.32,4.8-4.93,1.55-10.28,2.68-14.49,5.45C58,156.23,45.58,163.53,37.94,176.23c-2.29,3.8-4.59,7.6-6.66,11.51-.37.7.38,2,.62,3,2.92-.94,6.43-1.16,8.63-3,4-3.32,7.06-7.85,10.95-11.38a165.72,165.72,0,0,1,17.75-14.61c5.11-3.47,11.09-5.66,16.67-8.43,1.14-.57,2.22-1.27,3.37-1.82,5.59-2.62,11-5.79,16.88-7.55a36.77,36.77,0,0,1,8.56-2,34.61,34.61,0,0,1,20.44,4.76c3.09,1.82,2.06,3.61.35,5-1.36,1.08-3.55,1.05-5.27,1.76s-5.79-1.23-4.88,3.46c-.66.06-1.33.13-2,.18l-7.21.48a18.62,18.62,0,0,1,.4,3C116.53,161,115.8,161.3,115.39,161.65ZM43.54,328.85l.65-.13a50.35,50.35,0,0,0-1.62-6c-1.32-3.34-3.25-6.47-4.3-9.88-3.49-11.23-6.87-22.5-10-33.84-2.25-8.27-3.94-16.69-5.9-25-.36-1.53-1.38-3.1-1.21-4.55,1.15-10.29,2.49-20.56,3.9-30.82.27-2,1.56-3.89,1.58-5.84,0-1.59-1.16-3.2-1.82-4.8a25.14,25.14,0,0,0-2.61,1.93c-4.25,4.13-3.56,10-5,15a87.57,87.57,0,0,0-1.95,9.67c-.93,5.58-2.15,11.15-2.51,16.76a79.92,79.92,0,0,0,.73,15.21c.26,1.94,1.63,4.46,3.25,5.36,3.75,2.08,2.69,4,1.46,7.11-.86,2.17-.05,5.06.24,7.6.09.82,1.16,1.5,1.35,2.33,1.45,6.56,2.34,13.27,4.3,19.66a91.68,91.68,0,0,0,7.29,17.17c2.14,3.91,5.48,7.18,8.49,10.57A3.39,3.39,0,0,0,43,337c.68-.27,1.2-1.75,1.21-2.7A39.89,39.89,0,0,0,43.54,328.85Zm642.89-180,1.31-.4c-1.67-5.46-3.41-10.91-5-16.4-2.17-7.56-4-15.24-6.42-22.71a193.69,193.69,0,0,0-7.45-18.62c-2.67-6-5.72-11.75-8.79-17.52-.34-.63-2-1-2.89-.74a3.11,3.11,0,0,0-1.57,2.32,30.66,30.66,0,0,0,.12,5.9c.4,3.78.29,7.78,1.56,11.27,2.16,5.91,5.17,11.5,7.92,17.18a19.34,19.34,0,0,0,2.72,4c4.38,5.14,8.75,10.27,9,17.51.14,4.16.18,8.32.39,12.47.51,10.22,1.34,20.42,1.55,30.64.16,7.76-.57,15.54-.63,23.31,0,1.64,1.18,3.29,1.82,4.94,1.26-1.39,2.57-2.73,3.76-4.18a5.13,5.13,0,0,0,1-2.18c1-5.33,2.46-10.63,2.83-16,.56-8.14.48-16.33.4-24.5C688.09,153.07,687,151,686.43,148.89ZM78.87,186.79l.54-.09c0-.93,0-1.86,0-2.79a27.33,27.33,0,0,0,.09-3.13c-.3-2.91-3.54-4.9-5.4-3.23-2.61,2.34-6.08,4-6.3,8.4-.09,1.73-2.18,3.31-2.48,5.1-.43,2.59-1.17,6.33.17,7.8,4.85,5.33,6.28,11.84,8,18.33.23.85.53,2.32,1,2.38,2.29.32,4.75.21.6,2.25-.29.14-.36,1.63,0,2a20.58,20.58,0,0,0,3.39,2.75s.87-.7.91-1.12c.23-2.23.43-4.46.45-6.69.05-5.29-.1-10.58.05-15.86,0-1.35,1.44-2.74,1.28-4C80.62,194.84,79.66,190.82,78.87,186.79ZM501.64,34.54c2.2,6.19,4.07,11.49,6,16.78,0,0,1-.07,1.11-.28,1.72-5,3-10.14,5.19-14.91a13.19,13.19,0,0,1,5.81-6.21c3.37-1.53,4.33,1.77,5.66,4.29.7,1.32,3.71,3,4.13,2.66,4.46-3.69,9-7.51,9.7-13.83a3.66,3.66,0,0,0-1.2-2.28c-2.21.62-5,.88-6.39,2.4-3.63,4-6.88,4.41-11.34,1.2-1.61-1.16-4.76-2-6.26-1.16-3.26,1.74-6,4.54-8.78,7.08A38.54,38.54,0,0,0,501.64,34.54ZM645,106l-.39,0c-.32-4.16-.54-8.33-1-12.47a3.42,3.42,0,0,0-1.8-2.51c-.91-.22-2.77.39-3,1.08-.94,2.55-2,5.3-1.88,7.94.13,3.86.83,7.44.18,11.57-1.09,7-1.27,14.56,2.77,21.15.72,1.17,2.3,1.81,3.48,2.7.57-1.38,1.6-2.76,1.63-4.15C645.06,122.84,645,114.41,645,106ZM620,196.3a29.92,29.92,0,0,0,2.56,4.55c3.14,3.69,6.5,7.19,9.64,10.88,1.77,2.07,3.11,4.52,5,6.46.4.4,3.47-1,3.44-1.09-1.18-5-2.1-10.13-4.09-14.81-1.39-3.26-4.11-6.06-6.6-8.71-1.19-1.27-3.75-2.82-4.8-2.33C623.12,192.19,621.73,194.49,620,196.3ZM641.41,49.13c-1.84-2.1-3.39-4-5.07-5.75-2.49-2.59-5.07-5.1-7.62-7.62-4.6-4.55-9.4-8.69-16.48-8.36-1,.05-1.92,0-2.88,0,.16.63.17,1.7.51,1.82a27.71,27.71,0,0,0,3.34.57,2.23,2.23,0,0,1,1.34.89c.79,1.43,1.1,3.26,2.16,4.38,5.57,5.87,11.22,11.67,17.07,17.24,1,.95,3.29,1.18,4.73.79C639.54,52.78,640.15,50.93,641.41,49.13ZM415.31,941.21a8.54,8.54,0,0,0-.6,2.06,19.62,19.62,0,0,0,.51,4.14q4.57,16.14,9.28,32.24,1.68,5.77,3.53,11.5c.14.42.77.68,1.18,1a5.43,5.43,0,0,0,.15-1.31c-1-8-1.15-16.19-3.44-23.77-1.55-5.15,0-9,1.4-13.18.75-2.24.5-3.11-1.58-4.35a112.09,112.09,0,0,1-9.6-7C415.89,942.35,415.78,942,415.31,941.21ZM649.94,235.45c2.4-.9,4.71-1.35,6.52-2.56a78.58,78.58,0,0,0,8.83-7.07c.5-.44.42-2,.07-2.85-2.44-5.75-5-6.06-9.63-1.55-1.41,1.37-3.24,3-5,3.14-2.24.19-4.58-1.05-6.91-1.5-.27-.05-1.22,1.25-1.07,1.6a95.85,95.85,0,0,0,4.4,9.34C647.61,234.8,649.07,235,649.94,235.45ZM84.08,305.53c.39-5.4-4.9-5.69-7.5-8.29a3,3,0,0,0-2.81-.51c-.58.33-.9,1.85-.71,2.71,1.21,5.38,2.44,10.76,4,16.06,1.07,3.68,2.61,7.23,4,10.82.18.46.82.74,1.25,1.11a8.93,8.93,0,0,0,.53-1.82Q83.48,315.58,84.08,305.53ZM667.79,157.31c-.85-2.92-1.54-5.6-2.49-8.18a2.3,2.3,0,0,0-2.15-.67c-4.59,2.58-10.09,14.88-5.3,20,.88.93,2.19,2.25,3.13,2.13a5.1,5.1,0,0,0,3.62-2.45A111.72,111.72,0,0,0,667.79,157.31Zm-576,208.3c-.72,6.52,3.42,11.3,7.67,15.93.48.53,3.32-.06,3.35-.33a46.73,46.73,0,0,0,.23-7.67c-.13-2.57-.72-5.14-.77-7.71-.07-3.31-1.86-5.33-4.82-5.14C95,360.85,91,360.41,91.81,365.61ZM488,91.28l-.76.37c.65,1.12,1.21,2.29,1.95,3.34a19.92,19.92,0,0,0,2.06,2.16,10.18,10.18,0,0,0,.62-2.93c-.78-7.5-1.39-15-2.79-22.43-.27-1.43-3.82-2.24-5.85-3.34-.52,1.66-1.91,3.72-1.37,4.9,1.2,2.65,3.36,4.86,5.12,7.26.38.5.74,1,1.1,1.54a5.61,5.61,0,0,1-1.69.4,6.38,6.38,0,0,1-1.7-.72,8.85,8.85,0,0,0,.28,2C485.89,86.33,486.94,88.8,488,91.28ZM336.46,705.83c-.2-5.29-3.21-7.3-6.2-4.73-3.18,2.74-5.52,6.47-8.07,9.89-.37.49.1,1.61.18,2.44a11.67,11.67,0,0,0,2.6-.55,37.36,37.36,0,0,0,4.68-2.48C332.15,708.82,334.56,707.11,336.46,705.83ZM577.56,89.2l-1.09.77c2.5,3.5,5,7,7.56,10.45.05.06,1.76-.76,1.72-1.06-.54-4.47-.89-9-2.11-13.34-.4-1.38-3.2-2.09-4.89-3.1-.34,1.51-.7,3-1,4.56C577.62,88,577.62,88.63,577.56,89.2ZM339.72,713.74l-1.8-3.39c-.59,1-1.88,2.2-1.65,2.94,1.53,5.05-2.6,5.23-5.36,6.64-.68.34-1.63.76-1.83,1.36a27.27,27.27,0,0,0-1.1,5.24,2.75,2.75,0,0,0,.77,2.05,2,2,0,0,0,1.85-.2C332.92,723.24,341.51,721.82,339.72,713.74ZM563.83,30.92c-5.1.11-6.29,3-5.6,5.78.62,2.47,3,4.51,4.6,6.73,1.62-2.52,3.83-4.89,4.61-7.65C567.77,34.58,565.12,32.56,563.83,30.92ZM91.59,396.52a18.86,18.86,0,0,0-1.7-2.25c-3.12-2.89-4.91-7.3-9.65-8.35a14.77,14.77,0,0,1-2.45-1c-.05,1.11-.59,2.79-.07,3.25,3.58,3.14,7.34,6.07,11.16,8.92C89.31,397.39,90.43,396.78,91.59,396.52ZM610.71,112.88c-.19.72-.28,1.18-.44,1.62-1.16,3,1.69,11.63,4.53,13.27a13,13,0,0,0,3.24.92,13.63,13.63,0,0,0-.19-3.21,55.62,55.62,0,0,0-3-8.76C614.09,115.26,612.31,114.32,610.71,112.88Zm-98.34-7.33c-2.22-3.88-3.57-6.48-5.17-8.92-.45-.68-2-1.45-2.38-1.2-1,.62-2.21,1.84-2.19,2.79.07,3.57,1,7,4.79,8.44C508.46,107.05,510,106.14,512.37,105.55ZM61.9,352.29c2.09,2.71,3.74,5.32,6,7.29.34.3,4-2,4.84-3.73.76-1.52-5.88-5.69-8.69-5.48C63.53,350.4,63.09,351.17,61.9,352.29ZM541.59,114a8.18,8.18,0,0,0-1.15-2q-4.07-3.54-8.27-6.94c-.34-.27-1-.11-1.54-.14,0,.54-.14,1.22.12,1.61,2.08,3.07,4.2,6.12,6.42,9.09.45.62,1.8,1.38,2,1.2A17.18,17.18,0,0,0,541.59,114ZM99.48,174.1c0-.13,0-.86-.32-1.21-1.17-1.21-2.32-2.71-3.79-3.22-.7-.25-2.81,1.31-3,2.28s1.21,2.39,1.69,3.68c.65,1.78,1.09,3.64,1.63,5.46.16.52.39,1,.58,1.53.37-.18,1-.28,1-.54C98.07,179.57,98.71,177,99.48,174.1ZM60.76,307.51c-.56-3.19-1-6.05-1.61-8.85-.17-.78-1-2-1.57-2-2-.08-4,5-2.75,7a43.12,43.12,0,0,0,3.53,4.68,2,2,0,0,0,1.72.56C60.51,308.71,60.62,307.83,60.76,307.51ZM588.67,136.78l-.79.73c.35.6.58,1.37,1.1,1.74a1.59,1.59,0,0,0,1.56-.29c.39-.57.8-1.82.54-2.06-1.69-1.55-.77-5.74-4.85-4.93a2.35,2.35,0,0,1-.42-1.39c1.55-4.74-4.86-.94-4.56-4.27-.17.24-.54.63-.48.71,2.06,2.86,4.14,5.72,6.28,8.53A7.51,7.51,0,0,0,588.67,136.78ZM777.08,820.45l-3.28-3.82c-.77,1.62-1.62,3.21-2.26,4.88a3.63,3.63,0,0,0,.12,2c.18.73.48,2,.87,2a3.05,3.05,0,0,0,2.47-.72C775.8,823.84,776.15,822.49,777.08,820.45ZM46.92,202.17c-.36.39-.89.86-.84.93,1.58,2.35,3.22,4.66,4.86,7,.21-.22.57-.42.62-.68A41.79,41.79,0,0,0,52.67,203c0-.74-1.11-1.57-1.8-2.28-.09-.09-1,.37-1,.47C50.65,205.44,48.84,204,46.92,202.17Zm103.72-26.1c-.94,1.28-2.35,2.45-2.58,3.82-.14.83,1.56,2,2.43,3l4.12-4.14ZM513.79,53.59l-2.67-4.32a19.83,19.83,0,0,1-1,2.87c-.52,1-2,2.38-1.8,2.71a15.3,15.3,0,0,0,3.27,2.84ZM755.56,878.23l-3-4.39c-.58.94-1.81,2.07-1.6,2.78a23,23,0,0,0,2.59,4.69C754.06,880.48,754.61,879.66,755.56,878.23ZM431.84,997.45c-.43.94-.78,1.35-.68,1.52.83,1.46,1.74,2.88,2.62,4.31.34-.33,1-.85,1-1C433.94,1000.84,433.05,999.43,431.84,997.45ZM600.17,99.35c-.2-.73-.46-1.75-.73-2.76a8,8,0,0,0-.48,2.24,26.35,26.35,0,0,0,.74,3.46C599.84,101.43,600,100.56,600.17,99.35Zm10.47-22.7c-.34,1-.68,1.5-.55,1.65a27.22,27.22,0,0,0,2.09,2.07c.09-.38.37-.86.23-1.12A26.55,26.55,0,0,0,610.64,76.65Zm-47.76-31-1.63-1.25c-.15.36-.54.85-.43,1.06a8.1,8.1,0,0,0,1.26,1.37Zm52.86,33.49-1.06-1c-.23.3-.67.62-.64.9s.45.67.7,1ZM550.43,126a12.48,12.48,0,0,0-2.09-.77c-.16,0-.58.39-.54.53a1.34,1.34,0,0,0,.57.77C548.54,126.6,548.88,126.4,550.43,126Zm-508,232.68.7-.25a2.54,2.54,0,0,0-.45-.83c-.09-.09-.48.17-.73.27Zm684.39,554.8c.13.18.22.4.37.46s.31-.12.47-.19c-.11-.16-.2-.38-.35-.45S727,913.39,726.86,913.46Z" transform="translate(-1.13 -2.23)"/><path d="M859.89,94.82c-8.81-1.31-15.68,3.22-22.63,7.3-1.68,1-2.94,2.8-4.2,4.38-1.83,2.33-3.29,5-5.27,7.16-2.77,3.07-3.36,6.44-2.59,10.34,1.36,6.83,2,13.81,7.09,19.4.9,1,.23,4.54-.9,6-2.19,2.8-1.57,4.36.93,6.22a23,23,0,0,1,5,4.59c1.52,2.06-2.46,7.47-5.67,8a23,23,0,0,1-4,.74c-1.41,0-3.91-.28-4-.82-.4-1.95-.8-5,.28-5.95,3.24-2.85,2.1-5.82,0-7.48-3.52-2.77-3.51-6.21-3.73-9.9a9.61,9.61,0,0,0-.76-3.71,2.91,2.91,0,0,0-2.25-1.41,3.34,3.34,0,0,0-2,1.78c-1.44,2.86-2.74,5.79-4,8.73a18.61,18.61,0,0,0-.73,3c-.45,1.91-.26,4.52-1.46,5.61-3.33,3-7.81,2.15-11.9,2-.66,0-1.56-1.87-1.79-3-1.54-7.33-3.39-14.39-7.41-21-2.56-4.19-3.27-9.48-5.05-14.19-1.08-2.88-3.66-5.59-3.66-8.37,0-3.2,1.66-6.71,3.53-9.44.85-1.25,4.44-1.91,5.88-1.13,1.68.89,2.57,3.56,3.44,5.62,1.2,2.84,1.88,5.91,3.11,8.74,1.84,4.24,3.81,8.43,6,12.49,1.56,2.85,3.24,1.66,4.18-.58,4-9.49,7.17-19.47,2.17-29.18-3.17-6.13-2.81-13.19-7-19.1-2.25-3.13-1.14-8.61-1.71-13-.33-2.46-1-4.87-1.52-7.31s.32-3.39,3-3.14c3.85.36,7.83,1.23,11.36-1.65.45-.38,2.94.57,3.05,1.17.26,1.42,0,4.13-.65,4.31-3,.85-3.06,2.74-3.14,5.28-.34,11.6,4.12,21.92,8.42,32.27.25.6,2.48,1.15,3,.73,4.58-3.54,8.86-7.48,13.48-11,9.3-7,20.15-7.61,31.13-6.45a38.7,38.7,0,0,1,12.76,3.7c2.3,1.14,3.74,4.18,5.33,6.53,1.49,2.19,2.34,4.9,4.07,6.84,3.79,4.27,3.64,9.67,4.27,14.63.94,7.37,4.65,12.06,11.17,15.67a35.06,35.06,0,0,1,11.79,11.32c1,1.6-1.67,6.58-3.81,9-1.75,2-5,1.85-7.26-.88a83,83,0,0,0-6.58-7.54c-3.05-3-5.4-2-7.46,1.54-1.54,2.65-4.12,6.35-6.46,6.52a28.2,28.2,0,0,1-14.43-2.49c-4.06-2.07-5-8.7-2.21-12.26s7.09-5.92,10.64-8.92a5.29,5.29,0,0,0,1.63-2.57c2.25-8.87-.7-16.5-5.57-23.79C871,94.7,865.25,95.26,859.89,94.82Z" transform="translate(-1.13 -2.23)"/><path d="M923.21,406.26c-.92-6,3.85-9.67,7.27-13.54,4.13-4.67,4.68-9.11.79-14.38-5.79-7.85-5.84-16.65-2.73-25.49,1.32-3.77.55-4.8-3.1-6.26-8.47-3.38-17.52-6-23.37-13.85-.47-.63-.5-2.48-.06-2.77,2.4-1.61,5.27-4.38,7.49-4,3.52.62,6.68,3.38,9.92,5.34,3.93,2.36,7.63,5.16,11.73,7.18,4.71,2.31,9.85,3.76,14.6,6a13.1,13.1,0,0,1,4.63,4.5c.5.72.07,2.57-.57,3.43-.42.57-2.08.62-3,.33-4.92-1.5-7,.32-6.37,5.42.32,2.6-.61,5.44.1,7.86,1.34,4.6,3.45,9,5.25,13.43.13.32.5.6.5.9,0,8,6.82,8.31,11.87,10.05a11.25,11.25,0,0,1,5.74,4.12c2.07,2.6,5.4,4.16,8,6.43a19.46,19.46,0,0,1,3.79,4.8,66.62,66.62,0,0,1,5,9.84c.53,1.45-.38,3.44-.64,5.18-2.48-.68-6.28-.59-7.21-2.18-3-5.13-6.17-9.81-11.77-12.23-2.85-1.23-5.82-2.53-8.84-2.82-1-.1-3.23,2.61-3.44,4.23-.71,5.33-.52,10.77-1.12,16.13-.55,5-9.05,7.73-13.43,4.77C926.27,423.38,923.52,415.67,923.21,406.26Z" transform="translate(-1.13 -2.23)"/><path d="M883.38,229.15c-1.69,3.5-4.22,8.6-6.65,13.74-1.44,3-3.35,6.05-3.89,9.26-.42,2.53.6,5.48,1.58,8,.77,2,2.4,3.65,3.75,5.38.69.88,1.8,2.4,2.38,2.26,5.71-1.41,7.1,3.54,9.14,6.58,3,4.53,8,4.58,12.14,6.57,3,1.42,5.62,2.55,2.13,6.12-.4.41-.13,1.44-.48,2-1.11,1.65-2.08,3.84-3.68,4.55-1,.46-3.46-.92-4.55-2.13-2.9-3.21-5.54-6.05-10.44-6.56-2.91-.3-5.94-2.54-8.28-4.62-5.89-5.26-15.12-5.55-19.34-13.06-1.08-1.92-2.47-4.63-1.87-6.34,2.4-6.95,5.65-13.6,8.28-20.48.63-1.66.11-3.77.11-5.67-1.53.12-3.2-.12-4.56.42-5.93,2.32-11.74,5-17.66,7.31a46,46,0,0,1-6.31,1.63c-4.46,1.07-8.88,2.39-13.4,3.07-3.06.47-5.94-3.85-4.27-6.45s3.23-5.42,7.37-5.19c1.91.1,4.06-1.37,5.86-2.51,3.45-2.19,6.65-4.11,11-4.83,7.16-1.17,14.06-4,21.06-6.15,4.63-1.42,9.19-3.18,13.91-4.14C880.46,217.13,883.31,221.46,883.38,229.15Z" transform="translate(-1.13 -2.23)"/><path d="M945.4,537.62c1.75,4.44-1.91,6.8-4.25,9.12-3.85,3.8-7.36,8.58-13.59,8.92a6.6,6.6,0,0,1-2.31-.08c-15.07-5-23.59-16.55-29.23-30.37-4.19-10.27-2.26-20.44,1.91-30.71,3-7.34,9.74-11,13.69-17.17.42-.65,3.07-.85,3.29-.47,1,1.71,2.07,3.77,1.89,5.59-.24,2.41-2,4.65-2.44,7.08s-.9,5.34-.28,7.76a153.74,153.74,0,0,0,5.16,15.4c1.5,4,3.38,7.82,5,11.76.7,1.7,1.13,3.51,1.81,5.21.6,1.5,1.23,4,2.1,4.14,1.81.23,3.81-.77,5.68-1.39,2.22-.74,4.43-2.37,6.57-2.26C944.8,530.35,946.07,533.53,945.4,537.62Z" transform="translate(-1.13 -2.23)"/><path d="M881.64,362.71c-1.68,1.24-3.5,3.34-5.78,4.09-4.25,1.39-4.89,4.68-5.09,8.14-.34,5.85-1,11.83-.16,17.55.67,4.48,3.42,8.66,5.23,13,.8,1.9,2,3.77,2.2,5.73.13,1.43-1.12,4.23-1.82,4.26a31.46,31.46,0,0,1-9.13-1.23c-.46-.12,0-3-.27-4.53a17.85,17.85,0,0,0-1.39-4.24c-1.36-3-3-5.83-4.24-8.84-1.46-3.42-2.67-6.94-4-10.43a8.59,8.59,0,0,1-.78-2.56c-.22-5.79-2.05-7-7.4-4.65-4.5,2-8.63,4.44-14.09,3.84-3.48-.39-6.33-.46-7-4.32-.73-4.12,2.42-5.91,5.5-7,4.35-1.51,8.91-2.4,13.38-3.59s6.36-5.85,7.23-9.85c.74-3.39,4-6.63,7-9a39.51,39.51,0,0,1,11.54-6.58c1.81-.66,4.61,1.09,6.79,2.1.51.24.72,2.06.41,2.92-1.6,4.44.07,8.44,1.38,12.51C881.3,360.55,881.34,361.14,881.64,362.71Z" transform="translate(-1.13 -2.23)"/><path d="M304.5,276.79c-.39,1.44-.92,3.41-1.44,5.4a5.16,5.16,0,0,0-.32,1.7c1.31,11.35-.94,22.47-2.89,33.49-1.22,6.93-5.37,13.39-6.29,20.32-1,7.61-6.65,7.48-11.35,10.08C274.5,352,266.51,353.11,258,354c-9.46.94-18.71,3.93-28.09,5.82-3.37.68-6.91.54-10.31,1.13-7.37,1.29-14.71,2.76-22,4.25-4.7,1-10.83-2.9-13.49-8.78-1.45-3.2-3.49-7.34-.21-9.52,2-1.35,6.24.2,9.32,1,1.56.42,2.62,2.57,4.19,3.13s4.72,1.08,5.43.21c6.12-7.6,15.52-10.11,23.05-15.44,1-.7,1.57-2,2.34-3-1.13-.33-2.3-.59-3.4-1-1.61-.62-3.14-1.81-4.76-1.91a24.29,24.29,0,0,0-6.62.91c-4,.9-7.92,2.19-12,2.88-2.39.42-4.22.29-5,3.52-.38,1.62-3.41,3.64-5.22,3.61-2.25,0-5.57-1.43-6.49-3.23-2.12-4.13-5-2.84-8-2.34-2.16.36-4.25,1.14-6.4,1.54-4.69.88-7.47-1.83-8.61-5.75-2.48-8.48-4.69-16.89-5.5-25.95-.67-7.49,1.66-14.09,1.94-21.14.14-3.42,3.42-6.62,4.75-10.12,3.73-9.76,6.84-19.78,10.89-29.4,1.88-4.46,5.55-8.13,8.06-12.36,2.17-3.66,3.52-7.83,5.83-11.38A190.6,190.6,0,0,1,200.39,203c5.1-6.13,10.85-11.73,16.33-17.56.79-.84,1.46-2.1,2.43-2.42,7.68-2.53,15.45-4.8,23.15-7.3,8.24-2.67,14.37,2.37,21.17,5.36,8.28,3.66,14.59,9.77,20.25,16.39,3.41,4,5.68,9.13,7.78,14.05,2.38,5.57,4,11.46,5.93,17.22,1.27,3.75,2.92,7.43,3.69,11.29a140.63,140.63,0,0,1,2.11,16C303.81,262.71,304.06,269.42,304.5,276.79ZM178.24,313.34l.91-.29c-.36-5.94-.94-11.87-1-17.82-.08-6.2,5.25-11.78,2.28-18.42-.19-.44.54-1.25.72-1.91.86-3.18,1.76-6.35,2.49-9.56.29-1.26-2.94-4.16,1.67-3.27.23.05.62-.6.89-.95a28.54,28.54,0,0,0,3.19-4.33c.76-1.54,1.52-3.45,1.24-5-.18-1-3-2.67-3.26-2.45a31.79,31.79,0,0,0-5.1,5.76c-.63.91-.28,2.45-.76,3.53-1,2.25-2.32,4.35-3.35,6.59-.77,1.66-1.06,3.58-2,5.13s-2,2.87.93,3.3c.34.05.62.59.92.9-.23.21-.54.64-.68.59-3.19-1.18-2.85,1.45-3.51,3.12-1.06,2.68-2.32,5.28-3.38,7.95-2.28,5.81-4.86,11.57-3.61,18.11.45,2.37.48,4.84,1.09,7.17,1.46,5.61,2.64,11.38,4.91,16.68,1.59,3.71,5.6,1.88,8.36,1,.69-.23.76-3.75.34-5.58C180.73,320.09,179.37,316.74,178.24,313.34Zm78.37,22.23c2.37,2.19,4.65,5.33,5.57,5,6.05-2.34,12.81-4.37,17.37-8.62,3.72-3.47,5.11-9.75,6.78-15a64.7,64.7,0,0,0,2.33-13.61c.13-1.35-1.08-3.81-2.15-4.11a45.13,45.13,0,0,0-9.8-1.27c-.48,0-1.54,1.49-1.47,2.2.35,3.42,1.23,6.8,1.44,10.22.13,2,.05,4.68-1.14,5.92-3.28,3.44-7.39,6.07-10.79,9.41C262,328.35,259.83,331.6,256.61,335.57ZM242.94,232l-.23-.06c.63-3.45.8-7.06,2-10.28,1.47-3.94,5.82-4,11.16-.38,1.58,1.07,2.74,2.75,4.09,4.14l-.09-6.73c-.05-3.42-2.19-5-5.2-5.47-6.09-.93-12.52-.79-18.23-2.76C232,209,232,212,231.11,213.73c-3,6.07-2.44,7.77,2.53,11.94,2.51,2.11,4.78,4.52,7.12,6.84a16.53,16.53,0,0,1,1.51,2.06Zm-2.18-45.3-.4,1.23a4.34,4.34,0,0,0-1.73,0,152.15,152.15,0,0,0-13.69,6.87c-1.09.66-1,3.29-1.42,5a28.63,28.63,0,0,0,4.87.3c5-.53,10-1.83,15-1.76,6.28.09,12.56,1.16,18.81,2,2.4.32,3.49-.68,2.25-2.52-1.48-2.21-3.49-4.65-5.83-5.58C252.84,190,246.73,188.52,240.76,186.71Zm-20.67,112c-2-5.45-4-10.85-6-16.24-.19-.48-.82-.8-1.24-1.19-2-1.83-2.74-1.4-3.75,1.2-1.52,3.88-1.26,6.77,2.25,9.26.65.47.78,1.64,1.21,2.46,1.11,2.14,2.15,4.34,3.43,6.38.4.64,2,1.36,2.18,1.16A12.91,12.91,0,0,0,220.09,298.74Zm-14.33-43.48c-.2-.32-.65-1.93-1.33-2a5.81,5.81,0,0,0-4.14.79c-4.87,3.88-4.91,7.84-.47,12.27,1.36,1.35,2.6,2.81,3.92,4.19a3.28,3.28,0,0,0,.82.46,7.54,7.54,0,0,0,.16-.93C205.05,265.36,205.37,260.71,205.76,255.26Zm39.58,91.19c.61-.69,2.18-1.83,2-2.39-.45-1.35-1.89-3.56-2.63-3.45a108.37,108.37,0,0,0-14,3.16c-.86.25-1.28,2.07-1.9,3.17,2.3.35,5.42,1.81,6.73.83C238.54,345.52,241.26,345,245.34,346.45ZM206.2,320.78c1.09.69,2.15,1.91,2.92,1.76,4-.81,7.95-1.89,11.87-3.06a2.85,2.85,0,0,0,1.66-2c.06-.5-1.19-1.71-1.73-1.64-4.44.59-8.87,1.34-13.26,2.22C207.19,318.16,207,319.34,206.2,320.78Zm-2.85-75.45c1.91,2.63,3.1,4.28,4.3,5.92a69.45,69.45,0,0,0,4.2-7.71c.15-.36-2.65-2.8-3.4-2.51C206.73,241.71,205.43,243.46,203.35,245.33ZM243.12,305a17.28,17.28,0,0,0-2.29-2.71,2.12,2.12,0,0,0-1.9.59,16.48,16.48,0,0,0-.31,3.4,7.27,7.27,0,0,1-.36,2.35c-.43,1-1.55,1.77-1.62,2.7,0,.69,1.14,2.11,1.71,2.08,1.09-.07,2.71-.69,3.07-1.52C242.27,310,242.5,307.73,243.12,305ZM189.8,282.72c1.85-3.8,3.34-6.32,4.19-9,.19-.61-1.86-1.92-2.88-2.91a69.51,69.51,0,0,0-3.5,7.55C187.35,279.07,188.55,280.33,189.8,282.72Zm33.32-20.57-1.27-1.43-1.17-4.19c-.88,1.09-2.29,2.1-2.46,3.29-.12.87,1.22,2.24,2.22,2.88C221,263.05,222.2,262.37,223.12,262.15Zm-29.93-4.86a2.82,2.82,0,0,0-.51-.81c-.13-.09-.46.07-.69.12a4,4,0,0,0,.53.75C192.62,257.44,192.9,257.32,193.19,257.29Z" transform="translate(-1.13 -2.23)"/><path d="M474.78,158.51c3,1.26,6.44,2.58,9.78,4.23,2.81,1.38,5.09,2.52,8.27.09,1.48-1.15,5.17-1.07,6.89,0q16.48,10.26,32.48,21.31c8.45,5.84,16.95,11.74,24.71,18.44a189.72,189.72,0,0,1,19,19.68c6.4,7.41,12.34,15.25,18.23,23.08s12.34,15.73,17.21,24.34c2.6,4.59,2.39,10.76,3.51,16.21.24,1.2.95,2.32,1,3.52a14.85,14.85,0,0,1-.5,3.65c0,.17-.52.32-.5.43.88,4.93-2.33,7.38-5.84,9.61a17.83,17.83,0,0,1-3.47,1.85c-1.06.37-2.55,0-3.33.57-5.5,4.29-12,3.65-18.36,4.51-3,.4-5.37,2.18-9,1.21-9.31-2.49-18.94-3.77-28.3-6.14-2.57-.65-4.61-3.41-6.87-5.24-1.75-1.42-3.45-2.93-5.22-4.33-5.16-4.09-10.77-7.72-15.42-12.32-7.37-7.28-14.39-15-21-22.95-4.1-5-7.19-10.77-10.73-16.2-3.94-6.06-8.05-12-11.74-18.23-1.67-2.8-2.6-6.07-3.66-9.19q-3-9-5.84-18c-1.31-4.26-3.25-8.54-3.44-12.88-.38-9-1.34-18.56,6.46-25.55C470.23,159.15,472.28,159.19,474.78,158.51Zm126.49,125,.81,2.78c.18-.21.55-.52.51-.6-.42-.73-.91-1.42-1.37-2.13l-1.5-3.41c-.4.76-.79,1.52-1.18,2.28ZM526.7,271.41l2.43,4c.37-.63,1.2-1.55,1-1.84a21.82,21.82,0,0,0-2.59-3c-2-4.66-4.09-9.16-10-9.85-.91-.11-1.72-1-2.58-1.58.56,1.19,1.13,2.37,1.67,3.56a9.11,9.11,0,0,0,1.11,2.51C520.25,267.88,522.14,271.61,526.7,271.41Zm-10.16-81.08a65.8,65.8,0,0,0,2.12,7.27c1.43,3.23,4.1,6.21,4.52,9.52.74,5.73,4.11,4.65,7.77,4.42,3.85-.24,7.89-1.27,10.53,3.34a18.33,18.33,0,0,0,6.2,6.36c1.67,1,4.32.38,6.53.48-.44-2.14-.23-4.79-1.45-6.31-2-2.48-5.3-3.85-7.26-6.32-6.86-8.62-16.13-14-25.31-19.56C519.51,189.12,518.05,190,516.54,190.33ZM573.93,299l.27-.71a50.1,50.1,0,0,0,5.74-1.09,2.57,2.57,0,0,0,1.43-2,3.77,3.77,0,0,0-1.32-2.5,45.12,45.12,0,0,0-7.48-5.2,13.81,13.81,0,0,0-6.13-.95c-4.28.1-8.57.45-12.84.86a17.09,17.09,0,0,0-3.74,1.24c.71,1.12,1.19,2.91,2.17,3.25C559.28,294.42,566.62,296.65,573.93,299ZM500.57,190l2.34,1.27a33.15,33.15,0,0,1,.64-3.47,5.64,5.64,0,0,1,1.28-2.68c2.35-2,1.31-3.38-.54-4.69-1.41-1-3.17-1.64-4.36-2.83-3-3-6-2.74-9.82-1.31-2.2.83-5.08-.32-7.66-.3a28.26,28.26,0,0,0-4.76.83c.38,1.5.36,3.31,1.22,4.44,1.48,1.92,3.36,2.26,6.19,1.9,3-.38,6.49,1.43,9.55,2.76C496.8,186.81,498.61,188.56,500.57,190Zm-9.1,28,.66-.26c-1.7-3.35-3.39-6.69-5.15-10-.07-.14-1.25.11-1.25.15a83.25,83.25,0,0,0,.6,8.37,6.39,6.39,0,0,0,1.71,3.45,36.24,36.24,0,0,0,4.7,3.35C492.31,221.31,491.89,219.63,491.47,217.94Zm19.16,31.84c-1.49-3.21-2.25-6.17-4.05-8.25-1.1-1.28-3.78-1.22-5.76-1.69-.11,0-.62.84-.53.95,2.65,3.19,5.32,6.36,8.11,9.42C508.64,250.48,509.72,250,510.63,249.78Zm55.13-21.24c-1.44,1.94-2.73,3.12-2.53,3.5a30.37,30.37,0,0,0,4.42,6.53c.31.33,2.63-1.19,4-1.86Zm-85.24-29.68c1.31,1.89,2.35,3.54,3.55,5.07a8.5,8.5,0,0,0,2,1.38c.16-.86.66-1.83.41-2.54a27.36,27.36,0,0,0-2.32-4.58,15.25,15.25,0,0,0-1.67-1.95ZM513.09,254l-1.09.92c.33.37.6.87,1,1,.2.09.66-.4,1-.64Zm86.8,34-.48-.91c-.23.18-.59.32-.65.55s.17.54.28.82ZM511.64,253.1c.09-.19.27-.39.24-.54s-.26-.33-.41-.49a2.68,2.68,0,0,0-.36.69C511.09,252.83,511.44,253,511.64,253.1Z" transform="translate(-1.13 -2.23)"/><path d="M561,452.81a106.24,106.24,0,0,1,1,10.93,80.38,80.38,0,0,1-1.14,10.56,2.53,2.53,0,0,1-1.11,1.65c-5.78,3.09-11.39,6.65-17.46,9-8.13,3.16-17,5.25-25.38,2.23-5.94-2.14-11.28-6.45-16.33-10.49A70.1,70.1,0,0,1,482,454.25c-3.79-7.21-9.86-13.21-14.72-19.88a27.32,27.32,0,0,1-3.43-6.8,147,147,0,0,1-7.91-33.28,41.44,41.44,0,0,1,.3-8.24,50.74,50.74,0,0,0-1.76-17.67c-2.21-8.45-5.76-16.66-5.19-25.82.33-5.29-.75-10.68-1.2-16,0-.46,0-1.07-.21-1.36-3.61-4.08-1.77-9.06-2.16-13.61-.54-6.28-2.88-7.8-8.75-5-2.88,1.39-5.57,3.49-8.6,4.22-6.74,1.61-13.38.18-19.84-2-.43-.15-.78-.5-1.2-.69-3.44-1.59-8.25-2-7.19-7.67.69-3.67,1.7-7.28,2.61-10.91a7.73,7.73,0,0,1,.94-2.48c1.17-1.73,2.13-4,3.81-4.91,5.84-3.05,11.92-5.64,18-8.27a10.93,10.93,0,0,1,3.65-.47c4.21-.24,8.43-.44,12.64-.65.92,0,2-.37,2.74,0,4.23,2,8,4.62,12.93,5.46,3,.51,2.64,9.8.42,12.28a8.34,8.34,0,0,0-1.6,5.54c.35,6.54,6.34,9.06,9.95,13.31,1,1.22,1.51,2.92,2.23,4.4a26.78,26.78,0,0,0-4.33,2.13c-1,.73-2.44,2-2.37,3,.67,8.78,1.69,17.54,2.48,26.32.29,3.21-.16,6.51.39,9.65,1.5,8.62,4.69,16.46,12.37,21.53,3,2,6.46,3.46,9.59,5.35,1.61,1,2.87,2.54,4.46,3.56,2.87,1.83,6,3.31,8.78,5.2a14.54,14.54,0,0,1,3.88,3.9c1.51,2.26,2.77,4.45,6,2.74a1.7,1.7,0,0,1,1.59.33c4.4,6.74,12.5,7.88,18.42,12.27s12,8.61,17.13,13.81c3.5,3.58,5.45,8.7,8,13.18a69.78,69.78,0,0,1,4.11,7.85c1.09,2.61,1.72,5.43,2.55,8.16Zm-12.79,7.87c-1.57-4.21-3.15-8.41-4.69-12.63-.47-1.29-.77-2.65-1.26-3.94-.77-2-1.59-4.05-2.46-6-3.75-8.54-12.34-11.95-18.86-17.51-4.28-3.64-9.69-5.93-14.12-9.43-5.8-4.57-11.47-9.05-18.55-11.69-4.95-1.85-9.5-4.79-14.29-7.1a3.71,3.71,0,0,0-2.94.07c-.49.26-.67,1.65-.53,2.45.46,2.51,1.29,4.94,1.69,7.45,1.9,12,5.64,23.24,12.83,33.12,6.26,8.61,12.5,17.23,19.11,25.55,2.06,2.6,5.32,4.23,8,6.37,1,.76,1.74,1.73,2.64,2.57a8.68,8.68,0,0,0,2.49,2.09c5.48,1.95,11,5,16.72.61.46-.35,1.36-.13,2-.21C540.21,471.88,547.24,464.76,548.2,460.68Z" transform="translate(-1.13 -2.23)"/><path d="M617.51,751.4a47.89,47.89,0,0,1-4.31-6.31,10.61,10.61,0,0,1-.93-5.43c1.22-12.86.16-25.89,4.82-38.5,4.19-11.34,7.08-23.19,10.06-34.94,1.42-5.61,1.61-11.51,2.53-17.26a34.84,34.84,0,0,1,11.5-21.17c3.65-3.22,13.52-1.06,15.85,3.21a5.05,5.05,0,0,1-.13,4.41c-2.47,3.63-1.68,5,2.57,5.65,2.18.33,4.08,2.29,6.27,2.84a87.19,87.19,0,0,0,9.46,1.34c.83.11,2,0,2.41.52,2.42,3.22,4.79,6.51,6.94,9.92,1.77,2.82,1.52,5.27-2,6.7-2.14.87-4.12,2.2-6.32,2.83-2.84.81-4.69,2-5.21,5.25-.19,1.15-1.94,2-2.91,3.08a47.3,47.3,0,0,0-10,16c-2.28,6.35-5.81,12.28-9.06,18.25-4.15,7.63-9.32,14.66-12,23.16-1.54,4.87-4.62,9.27-7.16,13.8S623.6,751.34,617.51,751.4Zm42.43-95.47c-4.74.08-7.27,3.63-7.67,9-.12,1.58-.9,4.32-1.66,4.42-3.59.49-3.12,3-3.41,5.3a6.61,6.61,0,0,1-1,3.24c-3.47,4.44-3.57,9.72-4.36,14.93-.4,2.61-2.06,5-3.18,7.51-.46,1-1,2-1.49,3a2,2,0,0,0,.67.52,10.93,10.93,0,0,0,2.39-2.36c4.43-7.78,7.47-16.24,11.46-24.25,2.73-5.49,5.48-10.49,10.12-14.53,1.08-.94,2-3.29,1.55-4.44S660.72,656.41,659.94,655.93Zm-35.2,61.74,1.17,4.34a28.81,28.81,0,0,0,3.25-4.48c.84-1.74.58-4.27,1.78-5.54,3.48-3.67,3.86-6.76-.45-9.87-.72-.51-1.45-1-2.17-1.49-.48.72-1.27,1.38-1.39,2.16C626.14,707.55,625.5,712.34,624.74,717.67Zm27.56-75.38c-1.36-1.78-2-2.58-2.59-3.39l-5.29,6c.39.28.94.9,1.15.8C647.67,644.69,649.71,643.61,652.3,642.29Z" transform="translate(-1.13 -2.23)"/><path d="M115.23,163.88c.39-.15.73-.41.89-.32a1.1,1.1,0,0,1,.47.78c0,.12-.51.47-.67.4S115.53,164.28,115.23,163.88Z" transform="translate(-1.13 -2.23)"/><path d="M54.19,289.66l.3-.56c.17.1.47.18.49.31s-.15.38-.24.57Z" transform="translate(-1.13 -2.23)"/><path d="M28.73,203.29l-3.54.71C25.89,201.36,27.18,201.71,28.73,203.29Z" transform="translate(-1.13 -2.23)"/></svg>